<svg id="Capa_1" enable-background="new 0 0 512 512" height="512" viewBox="0 0 512 512" width="512" xmlns="http://www.w3.org/2000/svg"><g><path d="m274.855 364.498h-199.78c-31.05 0-56.22-25.171-56.22-56.22v-55.344h28.1c18.267 0 33.075-14.808 33.075-33.075l77.825-2.708z" fill="#ff7037"/><path d="m274.855 0c-103.708 0-187.78 84.072-187.78 187.779v11.423h187.78l10-99.601z" fill="#00aa95"/><path d="m462.634 187.779c0-103.707-84.071-187.779-187.779-187.779v199.202h187.78v-11.423z" fill="#007769"/><g><path d="m121.752 291.054h-14.296c-16.569 0-30-13.431-30-30v-46.224c0-16.569 13.431-30 30-30h14.296l10 53.112z" fill="#00dd80"/><path d="m427.836 291.054h14.418c16.569 0 30-13.431 30-30v-46.224c0-16.569-13.431-30-30-30h-14.418l-10 53.112z" fill="#00aa95"/></g><g><g><path d="m121.752 184.83h40v106.224h-40z" fill="#00429c"/></g></g><g><g><path d="m387.836 184.83h40v106.224h-40z" fill="#002659"/></g></g><path d="m130.921 366.436c-42.574 9.661-74.357 47.732-74.357 93.229v52.335h10.622l73.734-53.734z" fill="#ffbeaa"/><path d="m493.145 459.665c0-45.497-31.783-83.568-74.357-93.229l-10 91.83 73.735 53.734h10.622z" fill="#faa68e"/><g><path d="m179.048 364.063 95.807 114.078 10-76.474-10-37.604z" fill="#ffbeaa"/><path d="m274.855 364.063v114.078l95.807-114.078z" fill="#faa68e"/></g><path d="m179.048 364.063h-26.882c-7.302 0-14.412.822-21.245 2.373v81.83l-63.734 63.734h207.668l10-17-10-26.859z" fill="#046eff"/><path d="m418.788 366.436c-6.833-1.551-13.943-2.373-21.245-2.373h-26.882l-95.807 104.078v43.859h207.668l-63.734-63.734z" fill="#00429c"/><g><path d="m242.985 67.902c-46.831 12.523-82.653 51.983-89.849 100.763l121.718 18.112 20-72.16-20-40.882z" fill="#ff946a"/><path d="m274.855 73.734v113.042l121.718-18.112c-7.196-48.78-43.018-88.24-89.849-100.763z" fill="#ff7037"/></g><g><path d="m274.855 63.734c-11.022 0-21.702 1.458-31.867 4.176v84.59h31.867l10-52.899z" fill="#046eff"/><path d="m306.722 67.91c-10.165-2.719-20.845-4.176-31.867-4.176v88.766h31.867z" fill="#00429c"/></g><g><path d="m151.813 204.258v56.672c0 68.003 54.604 124.142 122.607 124.377.146 0 .29-.004.435-.004l10-113.803-10-67.242z" fill="#ffcdbe"/><path d="m274.855 204.258v181.045c67.954-.001 123.042-55.083 123.042-123.038v-58.008h-123.042z" fill="#ffbeaa"/></g><g><path d="m242.208 273.926h-30c0 34.543 28.104 62.647 62.647 62.647l10-17.073-10-12.927c-18.002 0-32.647-14.645-32.647-32.647z" fill="#faa68e"/><path d="m307.502 273.926c0 18.001-14.646 32.647-32.647 32.647v30c34.543 0 62.647-28.104 62.647-62.647z" fill="#e09380"/></g><g><path d="m183.68 141.176c-17.6 0-31.867 14.267-31.867 31.867v31.215c0 17.6 14.267 31.867 31.867 31.867h91.175l20-51.295-20-43.654z" fill="#4894ff"/><path d="m366.03 141.176h-91.175v94.949h91.175c17.6 0 31.867-14.268 31.867-31.867v-31.215c0-17.599-14.268-31.867-31.867-31.867z" fill="#046eff"/></g></g></svg>